<?xml version="1.0" encoding="UTF-8" standalone="no"?>
<svg width="565px" height="357px" viewBox="0 0 565 357" version="1.1" xmlns="http://www.w3.org/2000/svg" xmlns:xlink="http://www.w3.org/1999/xlink">
    <!-- Generator: Sketch 42 (36781) - http://www.bohemiancoding.com/sketch -->
    <title>00 Common/ ACUO watermark</title>
    <desc>Created with Sketch.</desc>
    <defs>
        <polygon id="path-1" points="564.170668 356.915152 564.170668 0.263021925 0.000109227442 0.263021925 0.000109227442 356.915152 282.085389 356.915152"></polygon>
    </defs>
    <g id="Symbols" stroke="none" stroke-width="1" fill="none" fill-rule="evenodd">
        <g id="00-Common/-ACUO-watermark">
            <g id="Group-5">
                <g id="Group-3">
                    <mask id="mask-2" fill="white">
                        <use xlink:href="#path-1"></use>
                    </mask>
                    <g id="Clip-2"></g>
                    <path d="M516.275635,252.17737 C516.236314,248.182958 512.535688,244.600788 508.485534,244.637673 C504.317415,244.674558 500.920441,248.138479 500.956487,252.314061 C500.992532,256.4712 504.483441,259.912339 508.623161,259.8722 C512.641638,259.832061 516.314957,256.138152 516.275635,252.17737 L516.275635,252.17737 Z M128.411169,203.017461 C123.890245,202.970812 120.140466,206.634345 120.051992,211.1842 C119.965703,215.658115 123.654313,219.355279 128.264804,219.414945 C132.909155,219.475697 136.491815,215.974891 136.545336,211.324145 C136.597765,206.750424 132.987798,203.064109 128.411169,203.017461 L128.411169,203.017461 Z M268.647191,254.2874 C268.639545,245.898267 261.295092,238.652564 252.928269,238.780576 C244.665213,238.906418 237.734732,245.909115 237.715071,254.152879 C237.694318,262.723182 244.708904,269.601121 253.367364,269.499145 C261.770231,269.400424 268.655929,262.545267 268.647191,254.2874 L268.647191,254.2874 Z M55.3958994,88.4585455 C48.4719718,104.853861 42.1695483,119.775952 35.6912686,135.114624 L80.1501149,135.114624 C71.9231039,119.608885 64.0914962,104.846267 55.3958994,88.4585455 L55.3958994,88.4585455 Z M522.799791,68.8759455 C538.353779,68.9160848 551.014332,56.564 551.127928,41.2383455 C551.241525,25.9886303 538.542742,13.2329818 523.148226,13.1320909 C507.713296,13.0301152 495.045097,25.5178061 494.966454,40.9107212 C494.886717,56.4576848 507.205389,68.8347212 522.799791,68.8759455 L522.799791,68.8759455 Z M144.757055,309.323933 C144.857545,328.492121 160.726108,343.900224 180.174054,343.712545 C199.293226,343.529206 214.84066,328.026721 214.916027,309.071164 C214.992486,289.792321 198.739442,273.758261 179.376694,274.009945 C160.088219,274.260545 144.656566,290.001697 144.757055,309.323933 L144.757055,309.323933 Z M419.38434,169.342679 C445.121602,169.290606 465.945814,148.577594 465.883554,123.089079 C465.823479,98.0518606 444.764428,77.3562061 419.381063,77.3898364 C393.61977,77.4234667 372.946292,98.0193152 372.957215,123.641267 C372.968137,148.741406 393.948545,169.394752 419.38434,169.342679 L419.38434,169.342679 Z M172.15676,356.915152 C169.977672,356.1384 167.8106,355.324764 165.61622,354.592491 C148.608415,348.917648 137.36345,337.565794 133.138532,320.273309 C128.636177,301.848242 134.033105,286.028982 147.963973,273.083485 C149.13926,271.991042 150.30581,270.889921 151.711567,269.57183 C145.429896,257.783867 139.309883,246.118491 132.925539,234.59957 C132.272359,233.420339 130.067057,232.582836 128.520396,232.477606 C110.145063,231.215927 101.447282,214.738164 110.756737,198.944939 C111.631649,197.460867 111.744153,194.729218 110.962084,193.209345 C103.848101,179.381867 96.5669997,165.634667 89.0106451,152.04043 C88.0330595,150.281891 85.2302833,148.505994 83.2467129,148.475618 C66.8691501,148.229358 50.4817567,148.270582 34.1052862,148.596036 C32.1959904,148.634006 29.4248902,150.50103 28.5991307,152.243297 C24.5751917,160.728982 20.6648492,169.317727 17.5409444,178.157073 C15.5551894,183.775503 12.448761,185.906145 6.73288884,185.044776 C4.96777335,184.777903 3.12838321,185.002467 0.000109227442,185.002467 L54.0403868,58.5015394 C57.2047059,64.3000545 59.7988577,68.9486303 62.2968893,73.6481939 C81.9927819,110.694685 101.703966,147.733582 121.296093,184.8354 C123.130022,188.308 124.921352,190.255303 129.426984,190.220588 C137.543675,190.157667 143.634197,194.493806 147.318439,201.590885 C151.014696,208.712915 150.76238,216.107242 146.18575,222.691188 C144.053631,225.758055 144.08203,227.807333 145.783793,230.859012 C151.156691,240.493552 156.259797,250.276715 161.386934,260.044691 C162.58079,262.320703 163.63265,263.749448 166.786046,262.961848 C184.557351,258.522648 200.252243,262.528994 213.725448,274.935321 C213.974486,275.164224 214.367705,275.240164 215.347475,275.682782 C218.47138,273.251636 222.038748,270.792285 225.1561,267.861024 C226.116209,266.95843 226.451537,264.5978 226.050672,263.194006 C222.485489,250.725842 225.430261,240.045509 235.596059,232.096824 C245.784795,224.131867 256.954393,224.089558 268.336985,230.182067 C269.687036,230.904576 272.379493,230.919764 273.494705,230.051885 C304.718462,205.748024 335.819884,181.28903 366.931137,156.843055 C367.196559,156.633679 367.32654,156.253982 367.808233,155.503267 C358.733617,140.043091 356.105605,123.335339 361.334322,105.785745 C365.120146,93.0778303 372.65247,82.8368606 383.315253,74.8946848 C403.187002,60.094097 436.004387,56.1550121 463.371323,81.2670848 C471.336188,75.0400545 479.399358,68.7381697 487.601247,62.3278 C479.816607,47.5803697 479.574122,33.1931091 488.285011,19.2408727 C498.664895,2.6155697 519.638748,-4.04431515 538.011897,3.1167697 C556.386137,10.2789394 567.184362,29.5990061 563.42803,48.5892788 C559.572302,68.0818364 542.432331,82.2401939 522.674179,81.996103 C514.108563,81.8908727 506.139329,79.4000606 499.192463,74.3370727 C496.840796,72.6219273 495.259183,72.6859333 493.038589,74.5117333 C486.8727,79.5823152 480.402066,84.2916424 474.323559,89.4587758 C473.159194,90.4481576 472.285375,93.3186667 472.87848,94.5770909 C485.593647,121.565952 481.768502,145.767836 460.980335,167.29557 C460.743311,167.54183 460.643914,167.920442 460.302032,168.585455 C461.005457,169.770109 461.742742,171.179327 462.634038,172.48657 C475.283668,191.039648 487.982451,209.559097 500.587298,228.141467 C502.324014,230.702794 503.881597,232.141303 507.536348,231.819103 C516.780266,231.002212 525.338236,237.058921 528.165043,245.577152 C531.143675,254.549933 527.759809,264.336352 519.920555,269.423206 C511.975351,274.579491 501.645712,273.791891 494.655155,267.4976 C487.600155,261.143642 485.669014,251.251994 490.310088,242.784752 C491.837087,239.998861 491.828349,238.180655 490.022819,235.573764 C477.34479,217.260436 464.785819,198.863576 452.336075,180.395115 C450.212693,177.244715 448.61688,176.229297 444.572188,177.975903 C421.225914,188.056315 399.479823,184.883133 379.795945,168.888127 C377.182132,166.765079 375.635472,166.452642 372.920077,168.591964 C342.83447,192.288309 312.669127,215.885933 282.465555,239.43257 C279.986092,241.36577 279.272837,243.007145 280.327974,246.241079 C283.828713,256.962636 279.968615,268.996861 271.282849,276.095024 C262.420134,283.338558 249.453744,284.789 239.583953,278.983976 C236.121443,276.94663 233.764314,276.766545 231.16907,279.681533 C223.123377,286.025727 223.123377,286.025727 225.807095,294.913891 C233.894295,321.6988 217.968934,348.948024 190.43488,355.486406 C189.040046,355.817285 187.714024,356.432394 186.356327,356.915152 L172.15676,356.915152 Z" id="Fill-1" fill="#4A4A4A" opacity="0.0999300373" mask="url(#mask-2)"></path>
                </g>
                <path d="M242.537841,111.845718 C242.537841,99.9188937 242.716974,87.9866452 242.443905,76.0663301 C242.344508,71.713918 243.798326,70.0747119 248.046181,70.6854816 C248.937477,70.8134937 249.881202,70.818918 250.770313,70.6822271 C255.485662,69.9564634 257.030138,71.6943907 256.962417,76.5946513 C256.686072,96.8303301 256.738501,117.074688 256.92528,137.312536 C256.975524,142.697724 257.302114,148.228282 258.592091,153.424706 C262.427066,168.863185 274.601557,176.478821 293.204083,175.712918 C308.458788,175.084791 319.856671,165.324409 322.28589,150.504294 C322.983853,146.246263 323.221969,141.874324 323.24163,137.553373 C323.338842,117.132185 323.37161,96.7109968 323.214323,76.2908937 C323.182647,72.2541725 324.052097,70.4381362 328.612343,70.6095422 C339.25765,71.0098513 337.582101,69.6722331 337.623607,79.5671362 C337.708805,99.988324 338.053963,120.421445 337.439013,140.824191 C337.199805,148.783724 335.606176,157.003621 332.954134,164.521621 C328.899611,176.01993 319.62074,182.807827 308.006586,186.109021 C296.031981,189.512191 283.890259,189.472051 271.9091,186.071051 C255.155795,181.31616 243.839832,167.018942 242.961643,148.700191 C242.374,136.441403 242.850231,124.132712 242.850231,111.845718 L242.537841,111.845718" id="Fill-4" fill="#4A4A4A" opacity="0.1"></path>
                <path d="M222.056264,164.261545 C212.624474,182.182157 186.838059,191.546569 163.563876,185.858708 C136.056036,179.136987 118.478064,156.784769 118.26507,128.257593 C118.045523,98.8777264 135.403948,76.4105142 163.850051,69.2526839 C186.496177,63.5550597 212.349221,72.9335749 221.966697,90.7142415 C218.425544,92.7494173 214.865821,94.7965264 212.700933,96.0408476 C204.539459,91.0559688 197.766265,85.14029 189.876767,82.4368476 C167.275424,74.6899446 143.43435,88.0303264 135.723985,111.567199 C127.384469,137.026423 139.386381,163.537951 163.20124,172.262302 C179.470668,178.22246 196.859677,173.826654 208.355865,160.847526 C209.064752,160.047993 209.771453,159.24629 210.837513,158.039938 C214.876744,160.280151 218.474696,162.275187 222.056264,164.261545 Z" id="Fill-6" fill="#4A4A4A" opacity="0.1"></path>
            </g>
        </g>
    </g>
</svg>