<?xml version="1.0" encoding="UTF-8" standalone="no"?>
<svg width="16px" height="16px" viewBox="0 0 16 16" version="1.1" xmlns="http://www.w3.org/2000/svg" xmlns:xlink="http://www.w3.org/1999/xlink">
    <!-- Generator: Sketch 41.2 (35397) - http://www.bohemiancoding.com/sketch -->
    <title>00 Common/ Checkbox with tick</title>
    <desc>Created with Sketch.</desc>
    <defs></defs>
    <g id="Symbols" stroke="none" stroke-width="1" fill="none" fill-rule="evenodd">
        <g id="00-Common/-Checkbox-with-tick">
            <path d="M0,3.00947762 C0,1.34738902 1.33663106,0 3.00947762,0 L12.9905224,0 C14.652611,0 16,1.33663106 16,3.00947762 L16,12.9905224 C16,14.652611 14.6633689,16 12.9905224,16 L3.00947762,16 C1.34738902,16 0,14.6633689 0,12.9905224 L0,3.00947762 Z" id="Checkbox" fill="#2B3C4C"></path>
            <path d="M7.32530726,13.0646839 L13.8253073,3.56468392 C14.1371736,3.1088793 14.0204885,2.48655905 13.5646839,2.17469274 C13.1088793,1.86282642 12.4865591,1.97951147 12.1746927,2.43531608 L5.67469274,11.9353161 C5.36282642,12.3911207 5.47951147,13.0134409 5.93531608,13.3253073 C6.3911207,13.6371736 7.01344095,13.5204885 7.32530726,13.0646839 Z" id="Line" fill="#FFFFFF"></path>
            <path d="M1.79289322,9.20710678 L5.79289322,13.2071068 C6.18341751,13.5976311 6.81658249,13.5976311 7.20710678,13.2071068 C7.59763107,12.8165825 7.59763107,12.1834175 7.20710678,11.7928932 L3.20710678,7.79289322 C2.81658249,7.40236893 2.18341751,7.40236893 1.79289322,7.79289322 C1.40236893,8.18341751 1.40236893,8.81658249 1.79289322,9.20710678 Z" id="Line" fill="#FFFFFF"></path>
        </g>
    </g>
</svg>