<?xml version="1.0" encoding="UTF-8" standalone="no"?>
<svg width="16px" height="16px" viewBox="0 0 16 16" version="1.1" xmlns="http://www.w3.org/2000/svg" xmlns:xlink="http://www.w3.org/1999/xlink">
    <!-- Generator: Sketch 41.2 (35397) - http://www.bohemiancoding.com/sketch -->
    <title>00 Common/ Edit box Copy 2</title>
    <desc>Created with Sketch.</desc>
    <defs></defs>
    <g id="Symbols" stroke="none" stroke-width="1" fill="none" fill-rule="evenodd">
        <g id="00-Common/-Edit-box-Copy-2" fill="#2B3C4C">
            <g id="Icon-edit">
                <path d="M13.47328,16 L1.68426667,16 C0.754133333,16 0,15.2458667 0,14.3157333 L0,2.52672 C0,2.08 0.177493333,1.65162667 0.493226667,1.33589333 C0.809173333,1.01994667 1.23754667,0.842453333 1.68426667,0.842453333 L9.26336,0.842453333 C10.38592,0.842453333 10.38592,3.13815039 9.26336,3.13815039 L2.70161273,3.13815039 L2.70161273,13.3596434 L12.8330252,13.3596434 L12.8330252,6.73664 C12.8330252,5.61408 15.1575467,5.61408 15.1575467,6.73664 L15.1575467,14.3157333 C15.1575467,15.2458667 14.4034133,16 13.47328,16 Z" id="Fill-1"></path>
                <path d="M5.89504,10.9474133 L5.89504,10.9474133 C5.14090667,10.95168 4.7616,10.0384 5.29749333,9.50741333 L14.5608533,0.244266667 C15.3499733,-0.431573333 16.4241067,0.64256 15.7482667,1.43168 L6.48490667,10.69504 C6.32917333,10.8541867 6.11754667,10.9442133 5.89504,10.9474133 Z" id="Fill-2"></path>
            </g>
        </g>
    </g>
</svg>